<svg id="logo" xmlns="http://www.w3.org/2000/svg" width="407" height="100" viewBox="0 0 407 100">
  <defs>
    <style>
      .cls-1 {
        fill: #ffffff;
      }

      .cls-2 {
        fill: #e29c4c;
      }
    </style>
  </defs>
  <path id="ebizzy" class="cls-1" d="M173.14,46.895a24.98,24.98,0,0,0-3.089-12.48,22.1,22.1,0,0,0-8.759-8.612,26.946,26.946,0,0,0-13.231-3.132A27.547,27.547,0,0,0,134.784,25.8a21.979,21.979,0,0,0-9.035,9.072,28.78,28.78,0,0,0-3.228,13.954,28.509,28.509,0,0,0,3.228,13.908,22.338,22.338,0,0,0,9.035,9.072,29.246,29.246,0,0,0,24.848.783,22.642,22.642,0,0,0,8.529-6.632,21.944,21.944,0,0,0,4.333-9.579H158.756a9.789,9.789,0,0,1-3.826,5.987,12.317,12.317,0,0,1-7.514,2.211,11.867,11.867,0,0,1-8.483-3.224q-3.413-3.223-3.688-10.039h37.434a24.686,24.686,0,0,0,.461-4.421h0Zm-13.093-1.289h-24.8q0.368-6.262,3.965-9.487a12.779,12.779,0,0,1,8.851-3.224,12.49,12.49,0,0,1,8.713,3.224q3.549,3.225,3.273,9.487h0Zm52.83-22.934a19.422,19.422,0,0,0-11.018,3.039,16.636,16.636,0,0,0-6.5,8.2V6.184h-13V74.342h13V63.658a16.876,16.876,0,0,0,6.5,8.243,19.2,19.2,0,0,0,11.018,3.085,21.957,21.957,0,0,0,11.617-3.132,21.159,21.159,0,0,0,8.068-9.072,31.438,31.438,0,0,0,2.9-13.954,31.437,31.437,0,0,0-2.9-13.954,21.167,21.167,0,0,0-8.068-9.072,21.971,21.971,0,0,0-11.617-3.132h0ZM208.82,34a12.725,12.725,0,0,1,9.773,3.961q3.687,3.961,3.688,10.868t-3.688,10.822a13.982,13.982,0,0,1-19.5-.092q-3.826-4.006-3.826-10.73,0-6.815,3.826-10.822A12.867,12.867,0,0,1,208.82,34h0ZM243.21,8.671a6.443,6.443,0,0,0,2.213,5.02,9.51,9.51,0,0,0,11.618,0,6.442,6.442,0,0,0,2.212-5.02,6.548,6.548,0,0,0-2.212-5.112,9.51,9.51,0,0,0-11.618,0,6.548,6.548,0,0,0-2.213,5.112h0Zm1.476,14.645V74.342h13V23.316h-13ZM304.155,33.54V23.316h-37.8V34.092h22.958L265.8,64.026V74.342h39.278V63.474H280Zm43.7,0V23.316h-37.8V34.092h22.958L309.5,64.026V74.342H348.78V63.474H323.7Zm3.319-10.224L372.66,72.868l-11.525,25.79h14.383l31.256-75.342H392.483L379.575,57.947,365.652,23.316H351.177Z"/>
  <path id="icon" class="cls-2" d="M49.255,18.012L28.7,53.6,36.259,66.68,64.4,17.992l20.4-.027L64.251,53.516l7.562,13.095L97.684,21.829H97.86L88.157,5.14A10.3,10.3,0,0,0,79.223,0l-19.582.026L49.255,18.012h0Zm39.033,76.78,22.95-39.73a10.272,10.272,0,0,0-.015-10.268L108,39.271l-23.4,40.5-1.255,2.191L70.7,81.98l-8.508.011H62.079V81.8l-7.1-12.218L49.072,79.819,47.8,82.01l-21.264.028-17.325-30,19.642-34h0L39.244,0.055l-6.02.008A10.318,10.318,0,0,0,24.3,5.225L1.37,44.939a10.2,10.2,0,0,0,.015,10.268l1.641,2.837L4.2,60.053,24.435,94.877A10.338,10.338,0,0,0,33.369,100l46-.061A10.317,10.317,0,0,0,88.288,94.792Z"/>
</svg>
